<svg width="18" height="17" viewBox="0 0 18 17" fill="none" xmlns="http://www.w3.org/2000/svg">
<path d="M7.83317 9.83333L6.02067 8.02083C5.86789 7.86806 5.67678 7.795 5.44734 7.80167C5.21789 7.80833 5.02706 7.88833 4.87484 8.04167C4.72206 8.19444 4.64567 8.38889 4.64567 8.625C4.64567 8.86111 4.72206 9.05556 4.87484 9.20833L7.24984 11.5833C7.40261 11.7361 7.59706 11.8125 7.83317 11.8125C8.06928 11.8125 8.26373 11.7361 8.4165 11.5833L13.1457 6.85417C13.2984 6.70139 13.3715 6.51028 13.3648 6.28083C13.3582 6.05139 13.2782 5.86056 13.1248 5.70833C12.9721 5.55556 12.7776 5.47917 12.5415 5.47917C12.3054 5.47917 12.1109 5.55556 11.9582 5.70833L7.83317 9.83333ZM8.99984 16.6667C7.84706 16.6667 6.76373 16.4478 5.74984 16.01C4.73595 15.5722 3.854 14.9786 3.104 14.2292C2.354 13.4792 1.76039 12.5972 1.32317 11.5833C0.885948 10.5694 0.667059 9.48611 0.666504 8.33333C0.666504 7.18056 0.885393 6.09722 1.32317 5.08333C1.76095 4.06944 2.35456 3.1875 3.104 2.4375C3.854 1.6875 4.73595 1.09389 5.74984 0.656667C6.76373 0.219445 7.84706 0.000555556 8.99984 0C10.1526 0 11.2359 0.218889 12.2498 0.656667C13.2637 1.09444 14.1457 1.68806 14.8957 2.4375C15.6457 3.1875 16.2396 4.06944 16.6773 5.08333C17.1151 6.09722 17.3337 7.18056 17.3332 8.33333C17.3332 9.48611 17.1143 10.5694 16.6765 11.5833C16.2387 12.5972 15.6451 13.4792 14.8957 14.2292C14.1457 14.9792 13.2637 15.5731 12.2498 16.0108C11.2359 16.4486 10.1526 16.6672 8.99984 16.6667ZM8.99984 15C10.8471 15 12.4201 14.3508 13.719 13.0525C15.0179 11.7542 15.6671 10.1811 15.6665 8.33333C15.6665 6.48611 15.0173 4.91306 13.719 3.61417C12.4207 2.31528 10.8476 1.66611 8.99984 1.66667C7.15262 1.66667 5.57956 2.31583 4.28067 3.61417C2.98178 4.9125 2.33262 6.48556 2.33317 8.33333C2.33317 10.1806 2.98234 11.7536 4.28067 13.0525C5.579 14.3514 7.15206 15.0006 8.99984 15Z" fill="white"/>
</svg>
