<svg width="51" height="53" viewBox="0 0 51 53" fill="none" xmlns="http://www.w3.org/2000/svg">
<path d="M35.6987 29.1253H15.179C14.8535 29.1253 14.5977 28.8695 14.5977 28.544C14.5977 28.2185 14.8535 27.9626 15.179 27.9626H35.6875C36.013 27.9626 36.2688 28.2185 36.2688 28.544C36.2688 28.8695 36.013 29.1253 35.6992 29.1253H35.6987ZM35.6987 25.0563H15.179C14.8535 25.0563 14.5977 24.8004 14.5977 24.4749C14.5977 24.1494 14.8535 23.8936 15.179 23.8936H35.6875C36.013 23.8936 36.2688 24.1494 36.2688 24.4749C36.2688 24.8004 36.013 25.0563 35.6992 25.0563H35.6987Z" fill="#FAFF00"/>
<path d="M14.0276 34.4151H12.7372C11.784 34.4151 11.0049 33.6363 11.0049 32.6827V20.347C11.0049 19.3938 11.7837 18.6146 12.7372 18.6146H14.0276C14.9808 18.6146 15.76 19.3934 15.76 20.347V32.6827C15.76 33.6363 14.9925 34.4151 14.0276 34.4151ZM12.7372 19.7774C12.4234 19.7774 12.1676 20.0332 12.1676 20.3471V32.694C12.1676 33.0079 12.4234 33.2637 12.7372 33.2637H14.0276C14.3415 33.2637 14.5973 33.0079 14.5973 32.694V20.3471C14.5973 20.0332 14.3415 19.7774 14.0276 19.7774H12.7372Z" fill="#FAFF00"/>
<path d="M10.4349 32.1485H9.14448C8.19127 32.1485 7.41211 31.3697 7.41211 30.4161V22.6148C7.41211 21.6616 8.19088 20.8824 9.14448 20.8824H10.4349C11.3881 20.8824 12.1672 21.6612 12.1672 22.6148C12.1672 22.9403 11.9114 23.1962 11.5859 23.1962C11.2603 23.1962 11.0045 22.9403 11.0045 22.6148C11.0045 22.301 10.7487 22.0451 10.4348 22.0451L9.14447 22.0455C8.83062 22.0455 8.57479 22.3013 8.57479 22.6152V30.4165C8.57479 30.7303 8.83062 30.9861 9.14447 30.9861H10.4348C10.7487 30.9861 11.0045 30.7303 11.0045 30.4165C11.0045 30.0909 11.2603 29.8351 11.5859 29.8351C11.9114 29.8351 12.1672 30.0909 12.1672 30.4165C12.1672 31.3697 11.3884 32.1485 10.4349 32.1485Z" fill="#FAFF00"/>
<path d="M6.84305 30.5789H5.55268C4.59947 30.5789 3.82031 29.8002 3.82031 28.8466V24.1845C3.82031 23.2313 4.59909 22.4521 5.55268 22.4521H6.84305C7.79626 22.4521 8.57542 23.2309 8.57542 24.1845C8.57542 24.51 8.3196 24.7659 7.99407 24.7659C7.66854 24.7659 7.41272 24.51 7.41272 24.1845C7.41272 23.8707 7.15689 23.6148 6.84304 23.6148H5.55267C5.23882 23.6148 4.983 23.8707 4.983 24.1845V28.8466C4.983 29.1604 5.23882 29.4162 5.55267 29.4162H6.84304C7.15689 29.4162 7.41272 29.1604 7.41272 28.8466C7.41272 28.521 7.66854 28.2652 7.99407 28.2652C8.3196 28.2652 8.57542 28.521 8.57542 28.8466C8.57542 29.8002 7.79628 30.5789 6.84305 30.5789Z" fill="#FAFF00"/>
<path d="M4.4014 29.1253H1.06475C0.739222 29.1253 0.483398 28.8695 0.483398 28.544V24.4749C0.483398 24.1494 0.739222 23.8936 1.06475 23.8936H4.4014C4.72692 23.8936 4.98275 24.1494 4.98275 24.4749C4.98275 24.8004 4.72692 25.0563 4.4014 25.0563H1.64613V27.9626H4.4014C4.72692 27.9626 4.98275 28.2184 4.98275 28.5439C4.98275 28.8695 4.72692 29.1253 4.4014 29.1253Z" fill="#FAFF00"/>
<path d="M35.6987 11.4532H15.179C14.8535 11.4532 14.5977 11.1974 14.5977 10.8719C14.5977 10.5464 14.8535 10.2905 15.179 10.2905H35.6875C36.013 10.2905 36.2688 10.5464 36.2688 10.8719C36.2688 11.1974 36.013 11.4532 35.6992 11.4532H35.6987ZM35.6987 7.38414H15.179C14.8535 7.38414 14.5977 7.12831 14.5977 6.80279C14.5977 6.47726 14.8535 6.22144 15.179 6.22144H35.6875C36.013 6.22144 36.2688 6.47726 36.2688 6.80279C36.2688 7.12831 36.013 7.38414 35.6992 7.38414H35.6987Z" fill="#FAFF00"/>
<path d="M13.6324 16.7438H11.9C10.7257 16.7438 9.77246 15.7906 9.77246 14.6163V3.05968C9.77246 1.88534 10.7257 0.932129 11.9 0.932129H13.6324C14.8067 0.932129 15.7599 1.88534 15.7599 3.05968V14.6041C15.7599 15.7898 14.8067 16.7431 13.6324 16.7431V16.7438ZM11.9 2.09489C11.3654 2.09489 10.9351 2.52515 10.9351 3.05977V14.6042C10.9351 15.1388 11.3654 15.5691 11.9 15.5691H13.6324C14.167 15.5691 14.5973 15.1388 14.5973 14.6042V3.05977C14.5973 2.52513 14.167 2.09489 13.6324 2.09489H11.9Z" fill="#FAFF00"/>
<path d="M8.80718 13.047H7.07482C5.90047 13.047 4.94727 12.0938 4.94727 10.9195V6.75731C4.94727 5.58297 5.90047 4.62976 7.07482 4.62976H8.80718C9.98152 4.62976 10.9347 5.58297 10.9347 6.75731C10.9347 7.08284 10.6789 7.33866 10.3534 7.33866C10.0279 7.33866 9.77203 7.08284 9.77203 6.75731C9.77203 6.22267 9.34176 5.79243 8.80714 5.79243L7.07478 5.79206C6.54014 5.79206 6.10989 6.22233 6.10989 6.75695V10.9074C6.10989 11.442 6.54016 11.8723 7.07478 11.8723H8.80714C9.34178 11.8723 9.77203 11.442 9.77203 10.9074C9.77203 10.5819 10.0279 10.3261 10.3534 10.3261C10.6789 10.3261 10.9347 10.5819 10.9347 10.9074C10.9347 12.0934 9.98152 13.047 8.80718 13.047Z" fill="#FAFF00"/>
<path d="M38.9781 16.7438H37.2457C36.0714 16.7438 35.1182 15.7906 35.1182 14.6163V3.05968C35.1182 1.88534 36.0714 0.932129 37.2457 0.932129H38.9781C40.1524 0.932129 41.1056 1.88534 41.1056 3.05968V14.6041C41.1056 15.7898 40.1524 16.7431 38.9781 16.7431V16.7438ZM37.2457 2.09489C36.7111 2.09489 36.2808 2.52515 36.2808 3.05977V14.6042C36.2808 15.1388 36.7111 15.5691 37.2457 15.5691H38.9781C39.5127 15.5691 39.943 15.1388 39.943 14.6042V3.05977C39.943 2.52513 39.5127 2.09489 38.9781 2.09489H37.2457Z" fill="#FAFF00"/>
<path d="M43.814 13.0471H42.0817C40.9073 13.0471 39.9541 12.0939 39.9541 10.9196C39.9541 10.594 40.2099 10.3382 40.5355 10.3382C40.861 10.3382 41.1168 10.594 41.1168 10.9196C41.1168 11.4542 41.5471 11.8845 42.0817 11.8845H43.8141C44.3487 11.8845 44.7789 11.4542 44.7789 10.9196V6.75743C44.7789 6.22279 44.3487 5.79255 43.8141 5.79255H42.0817C41.5471 5.79255 41.1168 6.22281 41.1168 6.75743C41.1168 7.08296 40.861 7.33878 40.5355 7.33878C40.2099 7.33878 39.9541 7.08296 39.9541 6.75743C39.9541 5.58309 40.9073 4.62988 42.0817 4.62988H43.814C44.9884 4.62988 45.9416 5.58309 45.9416 6.75743V10.9079C45.9416 12.0935 44.988 13.0471 43.814 13.0471Z" fill="#FAFF00"/>
<path d="M35.6987 46.8086H15.179C14.8535 46.8086 14.5977 46.5528 14.5977 46.2272C14.5977 45.9017 14.8535 45.6459 15.179 45.6459H35.6875C36.013 45.6459 36.2688 45.9017 36.2688 46.2272C36.2688 46.5528 36.013 46.8086 35.6992 46.8086H35.6987ZM35.6987 42.7391H15.179C14.8535 42.7391 14.5977 42.4833 14.5977 42.1578C14.5977 41.8322 14.8535 41.5764 15.179 41.5764H35.6875C36.013 41.5764 36.2688 41.8322 36.2688 42.1578C36.2688 42.4837 36.013 42.7391 35.6992 42.7391H35.6987Z" fill="#FAFF00"/>
<path d="M13.6324 52.0984H11.9C10.7257 52.0984 9.77246 51.1452 9.77246 49.9708V38.4264C9.77246 37.252 10.7257 36.2988 11.9 36.2988H13.6324C14.8067 36.2988 15.7599 37.252 15.7599 38.4264V49.9708C15.7599 51.1452 14.8067 52.0984 13.6324 52.0984ZM11.9 37.4494C11.3654 37.4494 10.9351 37.8797 10.9351 38.4143V49.9588C10.9351 50.4934 11.3654 50.9236 11.9 50.9236H13.6324C14.167 50.9236 14.5973 50.4934 14.5973 49.9588V38.4143C14.5973 37.8797 14.167 37.4494 13.6324 37.4494H11.9Z" fill="#FAFF00"/>
<path d="M8.80718 48.4015H7.07482C5.90047 48.4015 4.94727 47.4483 4.94727 46.274V42.1235C4.94727 40.9492 5.90047 39.996 7.07482 39.996H8.80718C9.98152 39.996 10.9347 40.9492 10.9347 42.1235C10.9347 42.4491 10.6789 42.7049 10.3534 42.7049C10.0279 42.7049 9.77203 42.4491 9.77203 42.1235C9.77203 41.5889 9.34176 41.1586 8.80714 41.1586H7.07478C6.54014 41.1586 6.10989 41.5889 6.10989 42.1235V46.274C6.10989 46.8086 6.54016 47.2389 7.07478 47.2389H8.80714C9.34178 47.2389 9.77203 46.8086 9.77203 46.274C9.77203 45.9485 10.0279 45.6926 10.3534 45.6926C10.6789 45.6926 10.9347 45.9485 10.9347 46.274C10.9347 47.4483 9.98152 48.4015 8.80718 48.4015Z" fill="#FAFF00"/>
<path d="M38.9781 52.0984H37.2457C36.0714 52.0984 35.1182 51.1452 35.1182 49.9708V38.4264C35.1182 37.252 36.0714 36.2988 37.2457 36.2988H38.9781C40.1524 36.2988 41.1056 37.252 41.1056 38.4264V49.9708C41.1056 51.1452 40.1524 52.0984 38.9781 52.0984ZM37.2457 37.4494C36.7111 37.4494 36.2808 37.8797 36.2808 38.4143V49.9588C36.2808 50.4934 36.7111 50.9236 37.2457 50.9236H38.9781C39.5127 50.9236 39.943 50.4934 39.943 49.9588V38.4143C39.943 37.8797 39.5127 37.4494 38.9781 37.4494H37.2457Z" fill="#FAFF00"/>
<path d="M43.814 48.4017H42.0817C40.9073 48.4017 39.9541 47.4485 39.9541 46.2741C39.9541 45.9486 40.2099 45.6928 40.5355 45.6928C40.861 45.6928 41.1168 45.9486 41.1168 46.2741C41.1168 46.8087 41.5471 47.239 42.0817 47.239H43.8141C44.3487 47.239 44.7789 46.8087 44.7789 46.2741V42.1236C44.7789 41.589 44.3487 41.1588 43.8141 41.1588H42.0817C41.5471 41.1588 41.1168 41.589 41.1168 42.1236C41.1168 42.4492 40.861 42.705 40.5355 42.705C40.2099 42.705 39.9541 42.4492 39.9541 42.1236C39.9541 40.9493 40.9073 39.9961 42.0817 39.9961H43.814C44.9884 39.9961 45.9416 40.9493 45.9416 42.1236V46.2741C45.9416 47.4485 44.988 48.4017 43.814 48.4017Z" fill="#FAFF00"/>
<path d="M38.1409 34.4151H36.8505C35.8973 34.4151 35.1182 33.6363 35.1182 32.6827V20.347C35.1182 19.3938 35.8969 18.6146 36.8505 18.6146H38.1409C39.0941 18.6146 39.8733 19.3934 39.8733 20.347V32.6827C39.8733 33.6363 39.0945 34.4151 38.1409 34.4151ZM36.8505 19.7774C36.5367 19.7774 36.2809 20.0332 36.2809 20.3471V32.694C36.2809 33.0079 36.5367 33.2637 36.8505 33.2637H38.1409C38.4548 33.2637 38.7106 33.0079 38.7106 32.694V20.3471C38.7106 20.0332 38.4548 19.7774 38.1409 19.7774H36.8505Z" fill="#FAFF00"/>
<path d="M41.7327 32.1485H40.4423C39.4891 32.1485 38.71 31.3697 38.71 30.4161C38.71 30.0906 38.9658 29.8348 39.2913 29.8348C39.6168 29.8348 39.8727 30.0906 39.8727 30.4161C39.8727 30.73 40.1285 30.9858 40.4423 30.9858H41.7327C42.0466 30.9858 42.3024 30.73 42.3024 30.4161V22.6148C42.3024 22.301 42.0466 22.0451 41.7327 22.0451H40.4423C40.1285 22.0451 39.8727 22.301 39.8727 22.6148C39.8727 22.9403 39.6168 23.1962 39.2913 23.1962C38.9658 23.1962 38.71 22.9403 38.71 22.6148C38.71 21.6616 39.4887 20.8824 40.4423 20.8824H41.7327C42.6859 20.8824 43.4651 21.6612 43.4651 22.6148V30.4161C43.4651 31.3697 42.6863 32.1485 41.7327 32.1485Z" fill="#FAFF00"/>
<path d="M45.3245 30.5789H44.0341C43.0809 30.5789 42.3018 29.8002 42.3018 28.8466C42.3018 28.521 42.5576 28.2652 42.8831 28.2652C43.2086 28.2652 43.4645 28.521 43.4645 28.8466C43.4645 29.1604 43.7203 29.4162 44.0341 29.4162H45.3245C45.6384 29.4162 45.8942 29.1604 45.8942 28.8466V24.1845C45.8942 23.8707 45.6384 23.6148 45.3245 23.6148H44.0341C43.7203 23.6148 43.4645 23.8707 43.4645 24.1845C43.4645 24.51 43.2086 24.7659 42.8831 24.7659C42.5576 24.7659 42.3018 24.51 42.3018 24.1845C42.3018 23.2313 43.0805 22.4521 44.0341 22.4521H45.3245C46.2777 22.4521 47.0569 23.2309 47.0569 24.1845V28.8466C47.0569 29.8002 46.2781 30.5789 45.3245 30.5789Z" fill="#FAFF00"/>
<path d="M49.8125 29.1253H46.4759C46.1504 29.1253 45.8945 28.8695 45.8945 28.5439C45.8945 28.2184 46.1504 27.9626 46.4759 27.9626H49.2312V25.0563H46.4759C46.1504 25.0563 45.8945 24.8004 45.8945 24.4749C45.8945 24.1494 46.1504 23.8936 46.4759 23.8936H49.8125C50.1381 23.8936 50.3939 24.1494 50.3939 24.4749V28.544C50.3939 28.8695 50.1381 29.1253 49.8125 29.1253Z" fill="#FAFF00"/>
</svg>
