<svg width="49" height="48" viewBox="0 0 49 48" fill="none" xmlns="http://www.w3.org/2000/svg">
<path d="M48.0112 23.7238C48.0112 29.9728 45.5288 35.966 41.1099 40.3848C36.6911 44.8037 30.698 47.2859 24.4488 47.2859C18.1997 47.2859 12.2066 44.8038 7.78774 40.3848C3.36892 35.966 0.886719 29.9729 0.886719 23.7238C0.886719 17.4746 3.36883 11.4815 7.78774 7.06267C12.2066 2.64384 18.1997 0.161377 24.4488 0.161377C24.8556 0.161377 25.185 0.491119 25.185 0.897903C25.185 1.30435 24.8556 1.63409 24.4488 1.63409C19.4479 1.63306 14.5952 3.32869 10.6822 6.44325C6.77013 9.55817 4.03012 13.9082 2.91082 18.7819C1.79117 23.6559 2.35817 28.7653 4.51916 33.2753C6.67975 37.7852 10.3066 41.4285 14.8067 43.6101C19.3067 45.7913 24.4139 46.3816 29.2921 45.2842C34.1711 44.1867 38.5338 41.4666 41.6659 37.5686C44.7986 33.6705 46.5161 28.8251 46.5377 23.8247C46.5593 18.8238 44.8839 13.9632 41.7853 10.0388L41.5915 11.9793C41.5539 12.3556 41.2375 12.6422 40.8595 12.6425C40.8355 12.6425 40.8105 12.6425 40.7855 12.6388C40.3808 12.598 40.0856 12.2371 40.126 11.8327L40.4941 8.1511H40.4944C40.5348 7.74671 40.8954 7.45154 41.2998 7.49161L44.9783 7.85936C45.3831 7.90011 45.6782 8.26101 45.6375 8.66574C45.5967 9.07013 45.2358 9.36529 44.8311 9.32454L42.9485 9.13656H42.9488C46.2326 13.2893 48.0165 18.43 48.0107 23.7245L48.0112 23.7238ZM24.4488 6.06249C29.1327 6.06249 33.6248 7.9232 36.9365 11.2353C40.2483 14.5475 42.1094 19.0396 42.1094 23.7231C42.1094 28.4065 40.2487 32.8991 36.9365 36.2108C33.6244 39.5225 29.1323 41.3836 24.4488 41.3836C19.7654 41.3836 15.2728 39.5229 11.9611 36.2108C8.64942 32.8986 6.78827 28.4065 6.78827 23.7231C6.79341 19.0406 8.65617 14.5514 11.9669 11.2406C15.2777 7.92977 19.7667 6.06705 24.4494 6.06197L24.4488 6.06249ZM33.4898 13.6435L35.3553 11.7732C32.565 9.21571 28.9638 7.72141 25.1826 7.55162V10.2026C25.1826 10.6093 24.8529 10.9387 24.4464 10.9387C24.0396 10.9387 23.7099 10.6093 23.7099 10.2026V7.55162C19.929 7.72146 16.3278 9.21571 13.5372 11.7732L15.4075 13.6431C15.6951 13.9307 15.6951 14.3971 15.4075 14.6848C15.1199 14.9724 14.6535 14.9724 14.3659 14.6848L12.496 12.8145C9.93845 15.6048 8.44415 19.206 8.27436 22.9872H10.9253C11.3317 22.9872 11.6615 23.3166 11.6615 23.7234C11.6615 24.1301 11.3317 24.4595 10.9253 24.4595H8.27436C8.44419 28.2408 9.93845 31.842 12.496 34.6322L14.3659 32.7668C14.5032 32.625 14.6915 32.5439 14.8891 32.5425C15.0866 32.5408 15.2767 32.6185 15.416 32.7582C15.5558 32.8979 15.6331 33.0879 15.6314 33.2855C15.6297 33.4827 15.5486 33.6714 15.4065 33.8084L13.5372 35.6738C16.3272 38.2313 19.928 39.726 23.709 39.8954V37.2448C23.709 36.838 24.0388 36.5083 24.4452 36.5083C24.852 36.5083 25.1818 36.838 25.1818 37.2448V39.8954C28.963 39.7256 32.5638 38.2313 35.3544 35.6738L33.489 33.8084H33.4893C33.2017 33.5208 33.2017 33.0544 33.4893 32.7667C33.7769 32.4791 34.2433 32.4791 34.531 32.7667L36.3964 34.6322H36.3961C38.9536 31.8419 40.4482 28.2407 40.6177 24.4595H37.9671C37.5603 24.4595 37.2309 24.1301 37.2309 23.7233C37.2309 23.3165 37.5603 22.9871 37.9671 22.9871H40.6177C40.4482 19.2059 38.9539 15.6051 36.3961 12.8153L34.5306 14.6846H34.531C34.242 14.9636 33.7828 14.9599 33.4986 14.676C33.2144 14.3921 33.2103 13.933 33.4894 13.6437L33.4898 13.6435ZM29.7439 27.9773V27.9776C30.0315 28.2652 30.0315 28.7313 29.7439 29.0189C29.4559 29.3065 28.9899 29.3062 28.7023 29.0185L25.3815 25.6978C24.8408 25.9536 24.2194 25.9765 23.6612 25.7615C23.1034 25.5465 22.658 25.1119 22.4292 24.5593C22.2005 24.007 22.2083 23.3848 22.4508 22.8379C22.6932 22.2914 23.1493 21.8683 23.7126 21.6673V14.4749C23.7126 14.0681 24.042 13.7383 24.4488 13.7383C24.8556 13.7383 25.185 14.0681 25.185 14.4749V21.6673C25.7657 21.8744 26.2314 22.3179 26.467 22.8873C26.7029 23.4567 26.6871 24.0994 26.4231 24.6566L29.7439 27.9773ZM24.4488 24.4354C24.7368 24.4354 24.9964 24.2618 25.1063 23.9957C25.2165 23.73 25.1556 23.4239 24.9522 23.2201C24.7484 23.0167 24.4423 22.9558 24.1766 23.0661C23.9106 23.176 23.737 23.4355 23.737 23.7235C23.7376 24.1162 24.0561 24.4347 24.4488 24.4354Z" fill="#FAFF00"/>
</svg>
