<svg width="14" height="18" viewBox="0 0 14 18" fill="none" xmlns="http://www.w3.org/2000/svg">
<path d="M1.64264 5.57233C1.40389 3.99983 2.51264 2.58733 4.20639 2.06983C4.50696 1.97793 4.83126 2.00409 5.11321 2.14298C5.39517 2.28186 5.61356 2.52303 5.72389 2.81733L6.26764 4.26733C6.35517 4.50059 6.371 4.7547 6.31309 4.99702C6.25518 5.23935 6.12618 5.45884 5.94264 5.62733L4.32514 7.10858C4.24541 7.18174 4.186 7.27432 4.1527 7.37728C4.1194 7.48025 4.11335 7.59008 4.13514 7.69608L4.15014 7.76108L4.18889 7.92358C4.39005 8.71314 4.69655 9.47203 5.10014 10.1798C5.53978 10.932 6.08537 11.6169 6.72014 12.2136L6.77014 12.2586C6.85089 12.3303 6.94884 12.3798 7.05442 12.4024C7.16001 12.4249 7.26965 12.4197 7.37264 12.3873L9.46389 11.7286C9.70156 11.654 9.95609 11.652 10.1949 11.7231C10.4336 11.7941 10.6457 11.9349 10.8039 12.1273L11.7939 13.3286C12.2064 13.8286 12.1564 14.5636 11.6826 15.0048C10.3864 16.2136 8.60389 16.4611 7.36389 15.4648C5.84393 14.2388 4.56258 12.7435 3.58389 11.0536C2.59725 9.365 1.93947 7.50537 1.64264 5.57233ZM5.44639 7.77858L6.78639 6.54858C7.15369 6.21175 7.41193 5.77283 7.52797 5.28817C7.64402 4.80351 7.61256 4.29523 7.43764 3.82858L6.89514 2.37858C6.67307 1.78639 6.23356 1.30115 5.66616 1.02175C5.09876 0.74235 4.44618 0.689807 3.84139 0.874829C1.73764 1.51858 0.048891 3.40483 0.406391 5.76108C0.656391 7.40608 1.23264 9.49858 2.50389 11.6836C3.55978 13.5057 4.94196 15.118 6.58139 16.4398C8.44139 17.9336 10.9239 17.4236 12.5364 15.9211C12.9978 15.4915 13.2778 14.902 13.3194 14.2729C13.361 13.6439 13.161 13.0227 12.7601 12.5361L11.7701 11.3336C11.4534 10.9492 11.0291 10.6681 10.5516 10.5265C10.0741 10.3848 9.56523 10.3891 9.09014 10.5386L7.35389 11.0848C6.9056 10.6226 6.51294 10.1095 6.18389 9.55608C5.86605 8.99653 5.61835 8.39995 5.44639 7.77983V7.77858Z" fill="white"/>
</svg>